<svg width="504" height="504" viewBox="0 0 504 504" fill="none" xmlns="http://www.w3.org/2000/svg">
<path d="M329.045 234.741C311.18 234.771 293.314 234.82 275.449 234.885L273.224 234.894H236.86C218.201 234.872 199.542 234.854 180.883 234.844C171.813 234.839 162.743 234.834 153.673 234.823C145.706 234.813 137.739 234.805 129.771 234.802L128.574 234.801C124.767 234.8 120.959 234.799 117.152 234.794C113.125 234.787 109.099 234.781 105.072 234.782C103.59 234.782 102.109 234.782 100.627 234.782L96.3979 234.771L92.5515 234.775C88.4815 234.772 85.3553 234.684 81.8506 236.986L80.0999 238.395L78.3493 239.75C74.5966 244.245 73.3813 249.724 73.3271 255.47L73.3546 257.506C73.3536 258.976 73.3543 260.447 73.3565 261.917C73.3814 264.199 73.4045 266.48 73.4014 268.762C73.3971 270.267 73.3976 271.772 73.4032 273.277L73.416 275.443C73.4063 282.798 74.4193 288.385 79.6085 293.863C83.9133 297.457 86.897 298.228 92.3122 298.14L94.7194 298.04C96.3242 298.005 97.9289 297.969 99.5337 297.932L103.196 297.794C103.196 299.76 103.196 299.76 103.495 302.12L103.923 305.147L104.411 308.616C104.686 310.552 104.96 312.488 105.234 314.424C105.843 318.746 106.455 323.067 107.068 327.387L107.715 331.943C108.604 338.209 109.493 344.474 110.384 350.739C111.671 359.779 112.956 368.819 114.232 377.86C115.136 384.265 116.043 390.67 116.955 397.075L117.13 398.299L117.131 398.305C117.617 401.716 118.104 405.127 118.584 408.538C119.096 412.181 119.609 415.824 120.131 419.465C120.326 420.819 120.52 422.173 120.713 423.527C122.379 435.494 123.517 447.561 131.698 457.011C142.298 467.266 153.034 468.398 167.129 468.317C169.059 468.305 170.988 468.3 172.917 468.302C178.187 468.317 183.456 468.316 188.725 468.297C194.325 468.277 199.925 468.271 205.525 468.271C214.907 468.273 224.289 468.262 233.671 468.237C244.589 468.205 255.508 468.185 266.427 468.186C278.151 468.187 289.875 468.179 301.599 468.161C304.958 468.156 308.316 468.152 311.675 468.15C317.049 468.149 322.422 468.145 327.795 468.127C329.774 468.12 331.754 468.113 333.734 468.107C336.49 468.109 339.247 468.11 342.004 468.098L344.503 468.085C345.993 468.09 347.483 468.088 348.972 468.075C357.22 467.534 365.067 463.544 370.83 457.625L372.489 455.045C379.501 445.17 379.501 445.17 382.82 421.279C383.071 419.465 383.326 417.652 383.583 415.839C384.276 410.974 384.963 406.108 385.643 401.24C386.353 396.161 387.068 391.082 387.787 386.003C391.794 357.672 395.75 329.332 399.579 300.976L400.008 297.794C402.072 297.813 404.136 297.83 406.2 297.842L408.73 297.855L411.237 297.88L413.637 297.89C418.245 297.922 420.515 296.467 424.069 293.438C428.28 289.089 429.936 283.821 429.988 277.875L429.945 275.7C429.944 274.135 429.94 272.571 429.934 271.006C429.897 268.573 429.861 266.142 429.857 263.708C429.857 262.105 429.852 260.502 429.842 258.898L429.823 256.596C429.803 250.2 429.103 245.928 425.315 240.668C421.853 237.048 418.771 235.145 413.749 234.531L410.559 234.539C408.676 234.533 406.793 234.527 404.91 234.542C403.534 234.553 402.157 234.559 400.781 234.56C397.027 234.556 393.272 234.562 389.518 234.582C385.531 234.603 381.544 234.612 377.557 234.616C370.026 234.623 362.495 234.642 354.965 234.671C346.325 234.705 337.685 234.726 329.045 234.741Z" fill="#FFA242"/>
<path d="M225.066 114.99C226.049 116.956 226.049 116.956 226.049 116.956L225.066 114.99Z" fill="#FFA242"/>
<path d="M91.9919 234.765C93.1444 234.761 94.297 234.757 95.4844 234.753C97.3929 234.755 97.3929 234.755 99.3399 234.756C100.7 234.753 102.061 234.75 103.421 234.747C107.168 234.739 110.915 234.737 114.662 234.737C118.7 234.735 122.738 234.727 126.776 234.721C135.609 234.707 144.442 234.702 153.276 234.697C158.789 234.694 164.302 234.69 169.816 234.686C185.075 234.674 200.334 234.664 215.594 234.66C216.571 234.66 217.548 234.66 218.554 234.66C220.023 234.659 220.023 234.659 221.522 234.659C223.506 234.659 225.491 234.658 227.475 234.658C228.952 234.658 228.952 234.658 230.458 234.657C246.412 234.653 262.367 234.636 278.321 234.613C294.694 234.59 311.066 234.578 327.439 234.577C336.634 234.576 345.83 234.57 355.026 234.552C362.855 234.537 370.684 234.532 378.514 234.54C382.51 234.544 386.505 234.543 390.501 234.529C394.158 234.517 397.816 234.518 401.473 234.53C403.424 234.533 405.375 234.521 407.325 234.509C409.065 234.519 409.065 234.519 410.841 234.528C411.84 234.528 412.84 234.527 413.869 234.527C418.817 235.165 421.903 237.101 425.315 240.668C429.103 245.929 429.803 250.2 429.822 256.597C429.829 257.356 429.836 258.116 429.842 258.899C429.852 260.502 429.857 262.106 429.857 263.709C429.861 266.142 429.897 268.574 429.934 271.007C429.94 272.571 429.943 274.136 429.945 275.7C429.959 276.418 429.974 277.136 429.988 277.876C429.936 283.821 428.28 289.089 424.069 293.439C419.934 296.963 417.618 297.917 412.285 297.926C410.549 297.933 410.549 297.933 408.778 297.94C406.854 297.939 406.854 297.939 404.89 297.939C403.523 297.942 402.155 297.946 400.787 297.95C397.016 297.96 393.244 297.964 389.472 297.966C385.409 297.97 381.347 297.979 377.284 297.988C367.466 298.007 357.648 298.017 347.83 298.026C343.209 298.03 338.589 298.036 333.968 298.041C318.614 298.057 303.259 298.072 287.905 298.079C283.919 298.081 279.932 298.083 275.946 298.085C274.46 298.085 274.46 298.085 272.944 298.086C256.887 298.094 240.831 298.119 224.775 298.151C208.301 298.183 191.826 298.201 175.351 298.204C166.097 298.206 156.844 298.215 147.59 298.24C139.71 298.261 131.83 298.269 123.95 298.26C119.928 298.255 115.907 298.257 111.886 298.276C108.204 298.294 104.523 298.293 100.842 298.277C98.8787 298.274 96.9153 298.29 94.952 298.306C84.339 298.23 84.339 298.23 79.6085 293.863C74.4193 288.386 73.4063 282.798 73.416 275.443C73.4118 274.728 73.4076 274.014 73.4032 273.277C73.3976 271.772 73.3971 270.267 73.4014 268.762C73.4045 266.48 73.3814 264.2 73.3565 261.918C73.3543 260.447 73.3536 258.977 73.3546 257.506C73.3455 256.835 73.3365 256.163 73.3271 255.471C73.3813 249.725 74.5966 244.245 78.3493 239.75C78.927 239.303 79.5047 238.856 80.0999 238.395C80.9665 237.698 80.9665 237.698 81.8506 236.986C85.1892 234.793 88.1157 234.77 91.9919 234.765Z" fill="#FFC268"/>
<path d="M192.633 77.6438C193.796 78.6262 193.796 78.6262 194.982 79.6286C204.395 87.8428 212.428 96.7926 219.66 106.944C220.156 107.637 220.652 108.33 221.163 109.044C225.506 115.288 228.186 121.13 229.181 128.75C229.337 129.886 229.493 131.021 229.654 132.19C229.982 135.653 230.038 139.034 229.98 142.51C224.432 145.113 218.938 146.646 212.965 147.977C212.012 148.189 211.06 148.402 210.079 148.621C178.757 155.373 144.136 154.726 116.26 137.172C108.567 132.13 101.897 126.32 95.3337 119.905C94.0794 118.742 94.0794 118.742 92.7998 117.555C79.0967 104.542 66.9864 86.3701 59.9521 68.7984C59.9521 67.5011 59.9521 66.2037 59.9521 64.8671C103.857 49.1306 154.824 45.6675 192.633 77.6438Z" fill="#6AF2A2"/>
<path d="M218.187 26.5367C224.004 29.737 225.697 35.4917 228.077 41.3405C228.539 42.4614 229.001 43.5823 229.478 44.7371C240.42 71.7642 248.621 99.4626 255.534 127.767C255.767 128.717 256 129.666 256.24 130.645C258.602 140.681 257.188 136.593 259.188 146.593C259.688 151.593 260.313 153.593 261.188 157.093C262.188 161.093 262.134 161.093 263.397 167.08C266.084 179.827 268.339 192.575 270.144 205.477C270.528 208.218 270.924 210.957 271.321 213.697C271.572 215.466 271.823 217.235 272.073 219.004C272.248 220.213 272.248 220.213 272.427 221.446C272.532 222.208 272.637 222.971 272.746 223.756C272.839 224.415 272.932 225.074 273.028 225.753C273.293 228.789 273.225 231.847 273.225 234.895C261.225 234.895 249.225 234.895 236.861 234.895C236.716 232.02 236.572 229.145 236.423 226.184C233.869 177.369 230.101 129.101 218.187 81.5746C217.902 80.4373 217.902 80.4373 217.612 79.277C214.47 66.8063 211.031 54.5618 206.358 42.5654C205.316 38.9906 205.116 36.1387 205.41 32.4337C209.038 26.8717 211.606 25.979 218.187 26.5367Z" fill="#479C62"/>
<path d="M263.396 168.063L257.188 166.593L251.688 164.093L252.188 157.593L253.188 151.093C255.688 141.593 260.515 131.506 261.822 128.623C278.232 93.0332 302.038 61.8919 339.542 47.2052C344.882 45.2895 350.296 43.704 355.781 42.2618C356.949 41.9514 358.117 41.641 359.321 41.3212C386.338 34.899 416.191 35.6228 443.252 41.279C442.727 47.8788 441.411 53.6414 439.259 59.8911C438.954 60.7879 438.648 61.6846 438.333 62.6085C429.102 89.116 415.566 112.493 396.077 132.681C395.496 133.324 394.916 133.966 394.318 134.628C372.718 157.945 338.381 168.017 307.623 170.028C302.79 170.184 297.962 170.215 293.126 170.213C292.479 170.213 291.832 170.214 291.165 170.215C281.717 170.214 272.685 169.754 263.396 168.063Z" fill="#6AF2A2"/>
</svg>
