<svg width="693" height="693" viewBox="0 0 693 693" fill="none" xmlns="http://www.w3.org/2000/svg">
<g clip-path="url(#clip0_315_30)">
<path d="M312.498 53.9435C318.315 57.1437 320.007 62.8984 322.387 68.7472C323.081 70.4286 323.081 70.4286 323.788 72.1439C335.826 101.875 345.133 132.644 351.81 164.019C353.573 161.376 354.826 158.913 356.133 156.03C372.543 120.44 396.35 89.2987 433.854 74.612C439.194 72.6963 444.607 71.1108 450.092 69.6686C451.26 69.3582 452.429 69.0478 453.632 68.728C480.65 62.3058 510.502 63.0296 537.563 68.6858C537.038 75.2856 535.722 81.0482 533.571 87.2979C533.265 88.1947 532.96 89.0914 532.645 90.0153C523.413 116.523 509.878 139.9 490.388 160.088C489.808 160.73 489.228 161.373 488.63 162.034C467.03 185.351 432.693 195.423 401.934 197.435C397.101 197.591 392.273 197.622 387.438 197.619C386.79 197.62 386.143 197.621 385.476 197.622C376.029 197.62 366.996 197.161 357.707 195.469C357.885 196.165 358.062 196.861 358.244 197.578C360.47 206.715 361.968 215.898 363.344 225.196C363.726 227.77 364.119 230.341 364.514 232.913C364.767 234.598 365.019 236.283 365.27 237.969C365.385 238.713 365.5 239.456 365.618 240.223C366.346 245.218 366.763 250.211 367.082 255.248C367.126 255.928 367.17 256.608 367.216 257.309C367.324 258.973 367.43 260.637 367.536 262.301C368.637 262.297 368.637 262.297 369.76 262.293C387.626 262.228 405.491 262.179 423.357 262.148C431.997 262.133 440.636 262.113 449.276 262.079C456.807 262.049 464.338 262.03 471.868 262.024C475.856 262.02 479.843 262.011 483.83 261.989C487.584 261.969 491.338 261.963 495.093 261.968C496.469 261.967 497.845 261.961 499.222 261.95C501.105 261.935 502.988 261.94 504.871 261.947C505.923 261.944 506.976 261.941 508.061 261.938C513.082 262.553 516.165 264.456 519.627 268.075C523.415 273.336 524.115 277.607 524.134 284.004C524.141 284.764 524.147 285.523 524.154 286.306C524.164 287.909 524.168 289.513 524.168 291.116C524.172 293.549 524.208 295.981 524.245 298.414C524.251 299.979 524.255 301.543 524.257 303.107C524.271 303.825 524.285 304.543 524.3 305.283C524.248 311.229 522.591 316.496 518.38 320.846C514.826 323.875 512.557 325.33 507.948 325.298C507.156 325.294 506.365 325.291 505.549 325.288C504.721 325.28 503.894 325.272 503.042 325.263C502.207 325.259 501.372 325.254 500.512 325.25C498.448 325.238 496.383 325.22 494.319 325.202C494.107 326.777 494.107 326.777 493.891 328.384C490.061 356.74 486.106 385.079 482.098 413.411C481.38 418.489 480.664 423.568 479.955 428.648C479.275 433.515 478.587 438.381 477.894 443.247C477.637 445.059 477.383 446.873 477.131 448.686C473.813 472.578 473.813 472.578 466.8 482.453C466.253 483.304 465.706 484.156 465.142 485.033C459.379 490.952 451.532 494.942 443.284 495.482C441.794 495.496 440.304 495.498 438.815 495.492C437.99 495.497 437.165 495.501 436.315 495.506C433.558 495.518 430.802 495.517 428.045 495.515C426.066 495.521 424.086 495.528 422.106 495.535C416.733 495.552 411.36 495.557 405.987 495.558C402.628 495.56 399.269 495.564 395.91 495.569C384.186 495.587 372.462 495.595 360.738 495.594C349.82 495.592 338.901 495.613 327.982 495.644C318.6 495.67 309.219 495.681 299.837 495.679C294.237 495.679 288.637 495.684 283.037 495.705C277.767 495.724 272.498 495.724 267.229 495.71C265.3 495.708 263.37 495.713 261.441 495.724C247.346 495.806 236.61 494.673 226.01 484.418C217.828 474.969 216.69 462.902 215.025 450.935C214.832 449.581 214.637 448.227 214.443 446.873C213.921 443.232 213.408 439.589 212.896 435.946C212.358 432.124 211.812 428.303 211.267 424.482C210.355 418.078 209.447 411.673 208.544 405.268C207.268 396.226 205.983 387.187 204.696 378.147C203.804 371.882 202.915 365.616 202.026 359.351C201.811 357.832 201.595 356.314 201.38 354.795C200.767 350.474 200.155 346.153 199.545 341.832C199.272 339.896 198.997 337.96 198.722 336.024C198.561 334.879 198.4 333.734 198.234 332.555C198.022 331.056 198.022 331.056 197.806 329.528C197.508 327.167 197.508 327.167 197.508 325.202C196.299 325.247 195.09 325.293 193.845 325.34C192.24 325.377 190.636 325.413 189.031 325.447C188.237 325.48 187.442 325.513 186.624 325.547C181.209 325.635 178.225 324.864 173.92 321.27C168.731 315.793 167.718 310.206 167.728 302.85C167.723 302.135 167.719 301.421 167.715 300.684C167.709 299.179 167.709 297.675 167.713 296.17C167.716 293.888 167.693 291.607 167.668 289.325C167.666 287.855 167.665 286.384 167.666 284.914C167.657 284.242 167.648 283.57 167.639 282.878C167.693 277.132 168.908 271.652 172.661 267.158C173.239 266.71 173.816 266.263 174.411 265.803C174.989 265.338 175.567 264.873 176.162 264.394C179.667 262.092 182.793 262.18 186.863 262.183C188.132 262.182 189.402 262.18 190.709 262.179C192.119 262.182 193.529 262.186 194.938 262.19C196.42 262.19 197.902 262.19 199.384 262.189C203.41 262.189 207.437 262.195 211.463 262.202C215.67 262.208 219.876 262.208 224.083 262.209C232.05 262.213 240.018 262.221 247.985 262.23C257.055 262.241 266.125 262.247 275.195 262.252C293.853 262.262 312.512 262.279 331.171 262.301C330.795 255.705 330.413 249.109 330.026 242.514C329.896 240.281 329.767 238.048 329.64 235.814C328.774 203.036 328.774 203.036 323.309 170.899C322.225 171.22 321.142 171.54 320.026 171.87C285.921 181.77 248.796 184.69 216.181 167.951C206.241 162.277 197.8 155.282 189.645 147.311C188.391 146.148 188.391 146.148 187.111 144.962C173.408 131.948 161.298 113.776 154.264 96.2047C154.264 94.9074 154.264 93.6101 154.264 92.2734C189.279 79.7233 228.394 74.4977 263.449 89.9047C271.963 94.036 279.721 98.9413 286.944 105.05C287.72 105.705 288.495 106.36 289.294 107.035C301 117.25 309.918 128.495 318.395 141.414C317.858 133.166 316.189 125.253 314.34 117.212C314.19 116.55 314.039 115.888 313.884 115.205C310.318 99.5755 306.238 84.0773 300.514 69.0855C299.416 65.8102 299.175 63.2511 299.721 59.8404C303.348 54.2784 305.916 53.3857 312.498 53.9435ZM319.377 142.397C320.36 144.363 320.36 144.363 320.36 144.363L319.377 142.397Z" fill="#FFA242"/>
<path d="M186.303 262.172C187.456 262.168 188.609 262.164 189.796 262.161C191.704 262.162 191.704 262.162 193.651 262.163C195.012 262.161 196.372 262.158 197.733 262.154C201.48 262.146 205.227 262.145 208.974 262.144C213.012 262.142 217.05 262.135 221.088 262.128C229.921 262.115 238.754 262.109 247.587 262.104C253.1 262.102 258.614 262.098 264.127 262.093C279.387 262.081 294.646 262.071 309.905 262.068C310.882 262.067 311.859 262.067 312.866 262.067C314.335 262.067 314.335 262.067 315.833 262.066C317.818 262.066 319.802 262.066 321.787 262.065C323.263 262.065 323.263 262.065 324.77 262.064C340.724 262.061 356.678 262.043 372.633 262.021C389.005 261.997 405.378 261.985 421.75 261.984C430.946 261.983 440.141 261.977 449.337 261.959C457.167 261.944 464.996 261.939 472.826 261.947C476.821 261.951 480.817 261.95 484.812 261.936C488.47 261.924 492.127 261.925 495.785 261.937C497.735 261.94 499.686 261.928 501.637 261.916C503.377 261.926 503.377 261.926 505.152 261.936C506.152 261.935 507.151 261.934 508.181 261.934C513.129 262.572 516.215 264.508 519.627 268.075C523.415 273.336 524.115 277.607 524.134 284.004C524.141 284.764 524.147 285.523 524.154 286.306C524.164 287.909 524.168 289.513 524.168 291.116C524.172 293.549 524.208 295.981 524.245 298.414C524.251 299.979 524.255 301.543 524.257 303.107C524.271 303.825 524.285 304.543 524.3 305.283C524.248 311.229 522.591 316.496 518.38 320.846C514.245 324.37 511.93 325.324 506.597 325.334C504.86 325.34 504.86 325.34 503.089 325.347C501.165 325.347 501.165 325.347 499.202 325.346C497.834 325.35 496.467 325.353 495.099 325.357C491.327 325.367 487.555 325.371 483.784 325.373C479.721 325.377 475.658 325.387 471.596 325.395C461.778 325.415 451.96 325.425 442.142 325.433C437.521 325.438 432.901 325.443 428.28 325.448C412.925 325.465 397.571 325.479 382.216 325.486C378.23 325.488 374.244 325.49 370.257 325.492C368.771 325.492 368.771 325.492 367.255 325.493C351.199 325.501 335.143 325.526 319.087 325.558C302.612 325.591 286.137 325.608 269.663 325.612C260.409 325.614 251.155 325.622 241.901 325.647C234.021 325.669 226.141 325.677 218.262 325.667C214.24 325.663 210.219 325.664 206.197 325.684C202.516 325.701 198.835 325.7 195.154 325.685C193.19 325.681 191.227 325.697 189.264 325.714C178.65 325.637 178.65 325.637 173.92 321.27C168.731 315.793 167.718 310.206 167.728 302.85C167.723 302.135 167.719 301.421 167.715 300.684C167.709 299.179 167.709 297.675 167.713 296.17C167.716 293.888 167.693 291.607 167.668 289.325C167.666 287.855 167.665 286.384 167.666 284.914C167.657 284.242 167.648 283.57 167.639 282.878C167.693 277.132 168.908 271.652 172.661 267.158C173.239 266.71 173.816 266.263 174.411 265.802C175.278 265.105 175.278 265.105 176.162 264.394C179.501 262.201 182.427 262.177 186.303 262.172Z" fill="#FFC268"/>
<path d="M218.924 327.048C219.813 327.037 220.702 327.025 221.618 327.014C223.09 327.017 223.09 327.017 224.592 327.021C225.642 327.014 226.691 327.005 227.741 326.994C230.631 326.97 233.522 326.965 236.412 326.963C239.527 326.957 242.642 326.934 245.757 326.914C252.571 326.873 259.385 326.855 266.199 326.842C270.452 326.834 274.706 326.821 278.959 326.808C290.73 326.771 302.501 326.74 314.273 326.73C315.026 326.729 315.78 326.729 316.556 326.728C317.69 326.727 317.69 326.727 318.846 326.726C320.377 326.725 321.907 326.723 323.438 326.722C324.577 326.721 324.577 326.721 325.739 326.72C338.047 326.708 350.354 326.656 362.662 326.586C375.292 326.515 387.922 326.477 400.552 326.474C407.646 326.471 414.74 326.454 421.833 326.399C427.873 326.353 433.913 326.338 439.953 326.363C443.035 326.374 446.117 326.371 449.2 326.329C452.021 326.291 454.842 326.295 457.664 326.331C459.169 326.34 460.673 326.304 462.178 326.267C463.521 326.297 463.521 326.297 464.89 326.327C465.661 326.325 466.432 326.323 467.226 326.321C471.043 328.271 473.424 334.181 476.056 345.072C478.978 361.135 479.518 374.176 479.533 393.705C479.538 396.025 479.543 398.344 479.548 400.734C479.556 405.629 479.56 410.525 479.559 415.42C479.563 422.85 479.59 430.274 479.619 437.702C479.623 442.479 479.626 447.255 479.628 452.032C479.639 454.224 479.65 456.416 479.661 458.674C479.621 476.827 478.343 492.911 475.095 506.191C471.905 516.951 470.118 519.864 466.004 519.892C464.665 519.913 464.665 519.913 463.299 519.933C461.814 519.932 461.814 519.932 460.3 519.931C459.245 519.941 458.19 519.952 457.135 519.965C454.225 519.995 451.316 520.006 448.406 520.014C445.272 520.026 442.138 520.054 439.004 520.081C431.43 520.14 423.856 520.17 416.282 520.197C412.718 520.21 409.154 520.226 405.589 520.242C393.745 520.293 381.9 520.336 370.055 520.358C366.98 520.364 363.905 520.37 360.83 520.375C359.683 520.378 359.683 520.378 358.514 520.38C346.128 520.405 333.742 520.481 321.356 520.578C308.647 520.677 295.938 520.731 283.229 520.741C276.09 520.748 268.952 520.774 261.813 520.85C255.734 520.916 249.656 520.94 243.577 520.911C240.475 520.897 237.372 520.903 234.27 520.961C231.43 521.014 228.591 521.011 225.751 520.964C224.236 520.954 222.722 521.002 221.207 521.053C213.02 520.819 213.02 520.819 209.371 507.487C205.368 490.763 204.586 473.704 204.594 451.246C204.591 449.064 204.587 446.882 204.584 444.634C204.58 440.039 204.579 435.444 204.583 430.849C204.585 423.882 204.567 416.918 204.548 409.951C204.546 405.462 204.546 400.973 204.547 396.483C204.54 394.432 204.533 392.381 204.525 390.267C204.567 372.724 205.505 355.994 208.4 342.271C208.845 340.905 209.291 339.54 209.75 338.133C210.419 336.004 210.419 336.004 211.101 333.831C213.676 327.136 215.934 327.063 218.924 327.048Z" fill="#FFA242"/>
<path d="M258.018 687.305L17.3777 -29.4946H170.978L346.082 521.417L520.162 -29.4946H674.786L433.122 687.305H258.018Z" fill="white"/>
<path d="M312.498 53.944C318.315 57.1442 320.007 62.8989 322.387 68.7477C323.081 70.429 323.081 70.429 323.788 72.1444C335.826 101.876 345.133 132.644 351.81 164.02C353.573 161.376 354.826 158.913 356.133 156.031C372.543 120.44 396.35 89.2992 433.854 74.6125C439.194 72.6968 444.607 71.1112 450.092 69.6691C451.26 69.3587 452.429 69.0483 453.632 68.7285C480.65 62.3062 510.502 63.0301 537.563 68.6863C537.038 75.286 535.722 81.0487 533.571 87.2984C533.265 88.1951 532.96 89.0919 532.645 90.0158C523.413 116.523 509.878 139.901 490.388 160.089C489.808 160.731 489.228 161.373 488.63 162.035C467.03 185.352 432.693 195.424 401.934 197.436C397.101 197.592 392.273 197.622 387.438 197.62C386.79 197.621 386.143 197.621 385.476 197.622C376.029 197.621 366.996 197.161 357.707 195.47C357.885 196.166 358.062 196.861 358.244 197.578C360.47 206.716 361.968 215.899 363.344 225.197C363.726 227.77 364.119 230.342 364.514 232.913C364.767 234.598 365.019 236.284 365.27 237.969C365.385 238.713 365.5 239.457 365.618 240.223C366.694 247.61 367.033 254.77 367.536 262.302C355.535 262.302 343.535 262.302 331.171 262.302C331.004 259.199 330.837 256.096 330.664 252.9C329.525 232.286 328.289 211.706 326.134 191.17C326.05 190.357 325.965 189.544 325.878 188.707C325.109 179.712 325.109 179.712 323.309 170.9C322.225 171.22 321.142 171.541 320.026 171.871C285.921 181.77 248.796 184.69 216.181 167.951C206.241 162.277 197.8 155.283 189.645 147.312C188.391 146.149 188.391 146.149 187.111 144.962C173.408 131.949 161.298 113.777 154.264 96.2052C154.264 94.9079 154.264 93.6106 154.264 92.2739C189.279 79.7237 228.394 74.4982 263.449 89.9052C271.963 94.0365 279.721 98.9418 286.944 105.051C287.72 105.706 288.495 106.361 289.294 107.035C301 117.251 309.918 128.495 318.395 141.415C317.858 133.167 316.189 125.254 314.34 117.213C314.19 116.551 314.039 115.888 313.884 115.206C310.318 99.576 306.238 84.0778 300.514 69.086C299.416 65.8107 299.175 63.2516 299.721 59.8409C303.348 54.2789 305.916 53.3862 312.498 53.944ZM319.377 142.398C320.36 144.363 320.36 144.363 320.36 144.363L319.377 142.398Z" fill="#6AF2A2"/>
<path d="M286.944 105.051C288.107 106.033 288.107 106.033 289.294 107.036C298.707 115.25 306.739 124.2 313.972 134.351C314.468 135.044 314.964 135.737 315.474 136.451C319.817 142.695 322.498 148.537 323.493 156.158C323.649 157.293 323.805 158.428 323.965 159.597C324.294 163.06 324.349 166.441 324.292 169.917C318.743 172.52 313.25 174.053 307.276 175.384C306.324 175.596 305.371 175.809 304.39 176.028C273.068 182.78 238.448 182.133 210.571 164.579C202.879 159.537 196.209 153.728 189.645 147.312C188.391 146.149 188.391 146.149 187.111 144.963C173.408 131.949 161.298 113.777 154.264 96.2056C154.264 94.9083 154.264 93.611 154.264 92.2743C198.168 76.5379 249.136 73.0748 286.944 105.051Z" fill="#6AF2A2"/>
<path d="M312.499 53.944C318.315 57.1442 320.008 62.8989 322.388 68.7477C322.851 69.8686 323.313 70.9895 323.789 72.1444C334.732 99.1715 342.933 126.87 349.846 155.174C350.079 156.124 350.312 157.074 350.552 158.052C352.913 168.088 350.019 176.03 346.897 185.642C346.22 187.93 345.573 190.223 344.932 192.522C349.148 193.17 353.364 193.819 357.708 194.487C360.396 207.235 362.651 219.982 364.456 232.885C364.84 235.626 365.236 238.365 365.632 241.104C365.884 242.873 366.135 244.642 366.385 246.412C366.56 247.62 366.56 247.62 366.738 248.853C366.844 249.616 366.949 250.378 367.058 251.164C367.15 251.822 367.243 252.481 367.339 253.16C367.604 256.196 367.536 259.254 367.536 262.302C355.536 262.302 343.536 262.302 331.172 262.302C331.028 259.427 330.883 256.552 330.735 253.591C328.18 204.776 324.413 156.508 312.499 108.982C312.214 107.845 312.214 107.845 311.924 106.684C308.782 94.2135 305.342 81.969 300.669 69.9726C299.628 66.3979 299.428 63.5459 299.722 59.8409C303.349 54.2789 305.917 53.3862 312.499 53.944Z" fill="#479C62"/>
</g>
<defs>
<clipPath id="clip0_315_30">
<rect width="692.83" height="692.83" fill="white"/>
</clipPath>
</defs>
</svg>
